<svg width="1129" height="460" viewBox="0 0 1129 460" fill="none" xmlns="http://www.w3.org/2000/svg">
<path d="M1 43.7471V13.129L14.7084 1H1114.97L1127.77 13.7952V422.621L1092.09 458.302H10.2254L1.42551 449.502V97.679L9.78417 89.3203L8.82063 55.4219L1 43.7471Z" fill="url(#paint0_linear_109_4203)"/>
<path d="M0.5 43.7471V43.8991L0.584591 44.0254L8.32493 55.5803L9.27824 89.1191L1.07196 97.3254L0.925513 97.4719V97.679V449.502V449.709L1.07196 449.855L9.87183 458.655L10.0183 458.802H10.2254H1092.09H1092.29L1092.44 458.655L1128.12 422.975L1128.27 422.828V422.621V13.7952V13.5881L1128.12 13.4417L1115.32 0.646447L1115.18 0.5H1114.97H14.7084H14.519L14.3771 0.625533L0.668678 12.7545L0.5 12.9038V13.129V43.7471Z" stroke="white" stroke-opacity="0.5"/>
<defs>
<linearGradient id="paint0_linear_109_4203" x1="499" y1="648" x2="691" y2="-38" gradientUnits="userSpaceOnUse">
<stop/>
<stop offset="0.958333" stop-opacity="0"/>
</linearGradient>
</defs>
</svg>
