<svg width="28" height="19" viewBox="0 0 28 19" fill="none" xmlns="http://www.w3.org/2000/svg">
<path fill-rule="evenodd" clip-rule="evenodd" d="M24.4388 0.778674C25.5925 1.08709 26.501 1.99561 26.8093 3.14935C27.3695 5.24049 27.3695 9.60312 27.3695 9.60312C27.3695 9.60312 27.3695 13.9658 26.8093 16.0569C26.501 17.2106 25.5925 18.1192 24.4388 18.4276C22.3476 18.9879 13.9633 18.9879 13.9633 18.9879C13.9633 18.9879 5.57851 18.9879 3.48769 18.4276C2.33403 18.1192 1.42551 17.2106 1.1172 16.0569C0.557007 13.9658 0.557007 9.60312 0.557007 9.60312C0.557007 9.60312 0.557007 5.24049 1.1172 3.14935C1.42551 1.99603 2.33403 1.08751 3.48769 0.779092C5.57893 0.21875 13.9633 0.21875 13.9633 0.21875C13.9633 0.21875 22.3476 0.21875 24.4388 0.778674ZM18.2275 9.60177L11.22 5.64087V13.5627L18.2275 9.60177Z" fill="#FEF500"/>
</svg>
