<svg width="31" height="31" viewBox="0 0 31 31" fill="none" xmlns="http://www.w3.org/2000/svg">
<path d="M4.84375 13.5625H26.1562V24.2188C26.1562 24.4757 26.0542 24.7221 25.8725 24.9038C25.6908 25.0854 25.4444 25.1875 25.1875 25.1875H5.8125C5.55557 25.1875 5.30917 25.0854 5.12749 24.9038C4.94581 24.7221 4.84375 24.4757 4.84375 24.2188V13.5625Z" stroke-width="1.94" stroke-linecap="round" stroke-linejoin="round"/>
<path d="M4.84371 13.5626L25.4296 8.04075L24.4246 4.29896C24.3923 4.17581 24.3359 4.06033 24.2585 3.95929C24.181 3.85825 24.0842 3.77367 23.9737 3.71052C23.8632 3.64736 23.7412 3.6069 23.6148 3.5915C23.4885 3.5761 23.3603 3.58607 23.2379 3.62083L4.52887 8.63411C4.40549 8.66648 4.28971 8.72289 4.18819 8.80011C4.08666 8.87733 4.00138 8.97384 3.93725 9.0841C3.87312 9.19436 3.8314 9.3162 3.81447 9.44263C3.79755 9.56906 3.80576 9.69758 3.83863 9.82083L4.84371 13.5626Z" stroke-width="1.94" stroke-linecap="round" stroke-linejoin="round"/>
<path d="M15.7543 5.61865L21.6879 9.0456" stroke-width="1.94" stroke-linecap="round" stroke-linejoin="round"/>
<path d="M7.33826 7.8833L13.2597 11.3103" stroke-width="1.94" stroke-linecap="round" stroke-linejoin="round"/>
</svg>
