<svg width="31" height="31" viewBox="0 0 31 31" fill="none" xmlns="http://www.w3.org/2000/svg">
<g clip-path="url(#clip0_19_293)">
<path d="M18.4062 13.0781H22.2812" stroke-width="1.9375" stroke-linecap="round" stroke-linejoin="round"/>
<path d="M8.71875 13.0781H12.5938" stroke-width="1.9375" stroke-linecap="round" stroke-linejoin="round"/>
<path d="M10.6562 11.1406V15.0156" stroke-width="1.9375" stroke-linecap="round" stroke-linejoin="round"/>
<path d="M20.8282 6.74487L10.1719 6.7812C8.69183 6.78402 7.25985 7.30711 6.12646 8.25898C4.99307 9.21085 4.23042 10.5309 3.9719 11.9882V11.9882L1.98596 22.1722C1.85845 22.8834 1.96145 23.6167 2.27994 24.2652C2.59843 24.9138 3.11576 25.4436 3.7565 25.7775C4.39724 26.1114 5.12788 26.2319 5.8419 26.1214C6.55591 26.0109 7.21596 25.6752 7.72581 25.1632V25.1632L12.9571 19.375L20.8282 19.3386C22.4982 19.3386 24.0998 18.6752 25.2807 17.4943C26.4616 16.3134 27.125 14.7118 27.125 13.0417C27.125 11.3717 26.4616 9.77008 25.2807 8.58919C24.0998 7.40829 22.4982 6.74487 20.8282 6.74487V6.74487Z" stroke-width="1.9375" stroke-linecap="round" stroke-linejoin="round"/>
<path d="M27.0281 11.9519L29.0141 22.1722C29.1416 22.8834 29.0386 23.6167 28.7201 24.2652C28.4016 24.9138 27.8843 25.4436 27.2435 25.7775C26.6028 26.1114 25.8721 26.2318 25.1581 26.1214C24.4441 26.0109 23.7841 25.6752 23.2742 25.1632V25.1632L18.043 19.3507" stroke-width="1.9375" stroke-linecap="round" stroke-linejoin="round"/>
</g>
<defs>
<clipPath id="clip0_19_293">
<rect width="31" height="31"/>
</clipPath>
</defs>
</svg>
