<svg width="17" height="13" viewBox="0 0 17 13" fill="none" xmlns="http://www.w3.org/2000/svg">
<path d="M16.2298 1.9199C15.6698 2.1599 15.0298 2.3199 14.3898 2.3999C15.0298 1.9999 15.5898 1.3599 15.8298 0.639905C15.1898 1.0399 14.5498 1.2799 13.7498 1.4399C13.1898 0.799905 12.3098 0.399902 11.4298 0.399902C9.6698 0.399902 8.2298 1.8399 8.2298 3.5999C8.2298 3.8399 8.2298 4.0799 8.3098 4.3199C5.6698 4.1599 3.2698 2.8799 1.6698 0.9599C1.4298 1.4399 1.2698 1.9999 1.2698 2.5599C1.2698 3.6799 1.8298 4.6399 2.7098 5.1999C2.1498 5.1999 1.6698 5.0399 1.2698 4.7999C1.2698 6.3199 2.3898 7.6799 3.8298 7.9199C3.5898 7.9999 3.2698 7.9999 2.9498 7.9999C2.7098 7.9999 2.5498 7.9999 2.3098 7.9199C2.7098 9.1999 3.9098 10.1599 5.3498 10.1599C4.2298 11.0399 2.8698 11.5199 1.3498 11.5199C1.1098 11.5199 0.869805 11.5199 0.549805 11.4399C1.9898 12.3199 3.6698 12.8799 5.5098 12.8799C11.4298 12.8799 14.6298 7.9999 14.6298 3.7599V3.3599C15.2698 3.1199 15.8298 2.5599 16.2298 1.9199Z" fill="#131313"/>
</svg>
