<svg width="18" height="17" viewBox="0 0 18 17" fill="none" xmlns="http://www.w3.org/2000/svg">
<path d="M15.0915 2.64995C13.511 1.07495 11.4037 0.199951 9.17927 0.199951C4.55488 0.199951 0.808536 3.93328 0.808536 8.54162C0.808536 9.99995 1.21829 11.4583 1.92073 12.6833L0.75 17L5.19878 15.8333C6.42805 16.475 7.77439 16.825 9.17927 16.825C13.8037 16.825 17.55 13.0916 17.55 8.48328C17.4915 6.32495 16.6719 4.22495 15.0915 2.64995ZM13.2183 11.5166C13.0427 11.9833 12.2232 12.45 11.8134 12.5083C11.4622 12.5666 10.9939 12.5666 10.5256 12.45C10.2329 12.3333 9.82317 12.2166 9.35488 11.9833C7.24756 11.1083 5.90122 9.00828 5.78415 8.83328C5.66707 8.71662 4.9061 7.72495 4.9061 6.67495C4.9061 5.62495 5.43293 5.15828 5.60854 4.92495C5.78415 4.69162 6.01829 4.69162 6.1939 4.69162C6.31098 4.69162 6.48658 4.69162 6.60366 4.69162C6.72073 4.69162 6.89634 4.63328 7.07195 5.04162C7.24756 5.44995 7.65732 6.49995 7.71585 6.55828C7.77439 6.67495 7.77439 6.79162 7.71585 6.90828C7.65732 7.02495 7.59878 7.14162 7.4817 7.25828C7.36463 7.37495 7.24756 7.54995 7.18902 7.60828C7.07195 7.72495 6.95488 7.84162 7.07195 8.01662C7.18902 8.24995 7.59878 8.89162 8.24268 9.47495C9.06219 10.1749 9.7061 10.4083 9.94024 10.525C10.1744 10.6416 10.2915 10.5833 10.4085 10.4666C10.5256 10.3499 10.9354 9.88328 11.0524 9.64995C11.1695 9.41662 11.3451 9.47495 11.5207 9.53328C11.6963 9.59162 12.75 10.1166 12.9256 10.2333C13.1598 10.35 13.2768 10.4083 13.3354 10.4666C13.3939 10.6416 13.3939 11.0499 13.2183 11.5166Z" fill="#131313"/>
</svg>
