<svg width="1129" height="460" viewBox="0 0 1129 460" fill="none" xmlns="http://www.w3.org/2000/svg"><path d="M1 43.747V13.13L14.708 1H1114.97l12.8 12.795v408.826l-35.68 35.681H10.225l-8.8-8.8V97.679l8.36-8.359-.964-33.898L1 43.747z" fill="url(#a)"/><path d="M.5 43.747v.152l.085.126 7.74 11.555.953 33.54-8.206 8.205-.146.147V449.709l.146.146 8.8 8.8.146.147H1092.29l.15-.147 35.68-35.68.15-.147V13.588l-.15-.146-12.8-12.796-.14-.146H14.519l-.142.126L.67 12.754l-.169.15v30.843z" stroke="#fff" stroke-opacity=".5"/><defs><linearGradient id="a" x1="499" y1="648" x2="691" y2="-38" gradientUnits="userSpaceOnUse"><stop/><stop offset=".958" stop-opacity="0"/></linearGradient></defs></svg>