<?xml version="1.0" encoding="UTF-8"?><!DOCTYPE svg PUBLIC "-//W3C//DTD SVG 1.1//EN" "http://www.w3.org/Graphics/SVG/1.1/DTD/svg11.dtd"><svg xmlns="http://www.w3.org/2000/svg"><defs><clipPath id="a"><path d="M0 0h31v31H0z"/></clipPath></defs><symbol id="arrow" viewBox="0 0 24 24"><path d="M19 12H5M14 17l5-5M14 7l5 5"/></symbol><symbol id="clapperboard" viewBox="0 0 31 31"><path d="M4.844 13.563h21.312v10.656a.969.969 0 0 1-.968.968H5.813a.969.969 0 0 1-.97-.968V13.562z"/><path d="M4.844 13.563L25.43 8.04l-1.005-3.742a.958.958 0 0 0-1.187-.678L4.528 8.634a.969.969 0 0 0-.69 1.187l1.006 3.742zM15.754 5.619l5.934 3.427M7.338 7.883l5.922 3.427"/></symbol><symbol id="facebook" viewBox="0 0 11 19"><path d="M7.076 10.292h2.978l.467-3.044H7.075V5.585c0-1.264.41-2.385 1.586-2.385h1.89V.544C10.217.499 9.515.4 8.19.4 5.42.4 3.796 1.87 3.796 5.224v2.024H.95v3.044h2.847v8.365c.564.085 1.135.143 1.721.143.53 0 1.047-.049 1.558-.118v-8.39z"/></symbol><symbol id="game-controller" viewBox="0 0 31 31"><g clip-path="url(#a)"><path d="M18.406 13.078h3.875M8.719 13.078h3.875M10.656 11.14v3.876M20.828 6.745l-10.656.036a6.309 6.309 0 0 0-6.2 5.207L1.986 22.172a3.39 3.39 0 0 0 5.74 2.991l5.231-5.788 7.871-.036a6.297 6.297 0 0 0 0-12.594z"/><path d="M27.028 11.952l1.986 10.22a3.39 3.39 0 0 1-5.74 2.991l-5.231-5.812"/></g></symbol><symbol id="lightning" viewBox="0 0 16 32"><path d="M4.157 19.01l1.321-.423-1.344 7.46L3.062 32l1.058-1.68 4.198-6.663 2.101-3.336 3.01-4.78L16 11.462l-7.024 2.145 1.226-3.403.546-1.515L13.881 0 4.56 2.308l-2.052 8.114-.373 1.479L0 20.342l4.157-1.332z"/></symbol><symbol id="quotation-mark" viewBox="0 0 45 34"><path d="M.546 33.6V20.64c0-2.56 1.92-6.32 5.76-11.28L13.386 0h6.72l-9.24 16.08h6.48V33.6H.546zm24.72 0V20.64c0-2.56 1.92-6.32 5.76-11.28L38.106 0h6.72l-9.24 16.08h6.48V33.6h-16.8z"/></symbol><symbol id="search" viewBox="0 0 26 26"><path clip-rule="evenodd" d="M12.059 19.12a7.062 7.062 0 1 0 0-14.123 7.062 7.062 0 0 0 0 14.124z"/><path d="M21.003 21.003l-3.951-3.951"/></symbol><symbol id="trophy" viewBox="0 0 31 31"><path clip-rule="evenodd" d="M16.792 21.312h-2.584a5.167 5.167 0 0 1-5.166-5.166V5.812c0-.713.578-1.291 1.291-1.291h10.334c.713 0 1.291.578 1.291 1.291v10.334a5.167 5.167 0 0 1-5.166 5.166z"/><path d="M15.5 21.313v5.166M11.625 26.48h7.75M21.958 8.396h3.875c.713 0 1.292.578 1.292 1.291v2.584a3.875 3.875 0 0 1-3.875 3.875h-1.292M9.042 8.396H5.167c-.713 0-1.292.578-1.292 1.291v2.584a3.875 3.875 0 0 0 3.875 3.875h1.292"/></symbol><symbol id="twitter" viewBox="0 0 17 13"><path d="M16.23 1.92c-.56.24-1.2.4-1.84.48.64-.4 1.2-1.04 1.44-1.76-.64.4-1.28.64-2.08.8A3.148 3.148 0 0 0 11.43.4a3.21 3.21 0 0 0-3.2 3.2c0 .24 0 .48.08.72A9.43 9.43 0 0 1 1.67.96c-.24.48-.4 1.04-.4 1.6 0 1.12.56 2.08 1.44 2.64-.56 0-1.04-.16-1.44-.4 0 1.52 1.12 2.88 2.56 3.12-.24.08-.56.08-.88.08-.24 0-.4 0-.64-.08.4 1.28 1.6 2.24 3.04 2.24-1.12.88-2.48 1.36-4 1.36-.24 0-.48 0-.8-.08 1.44.88 3.12 1.44 4.96 1.44 5.92 0 9.12-4.88 9.12-9.12v-.4c.64-.24 1.2-.8 1.6-1.44z"/></symbol><symbol id="whatsapp" viewBox="0 0 18 17"><path d="M15.091 2.65A8.343 8.343 0 0 0 9.18.2C4.555.2.81 3.933.81 8.542c0 1.458.41 2.916 1.112 4.141L.75 17l4.449-1.167a8.558 8.558 0 0 0 3.98.992c4.625 0 8.371-3.733 8.371-8.342-.059-2.158-.878-4.258-2.459-5.833zm-1.873 8.867c-.175.466-.995.933-1.405.991-.35.059-.82.059-1.287-.058-.293-.117-.703-.233-1.171-.467-2.107-.875-3.454-2.975-3.57-3.15-.118-.116-.879-1.108-.879-2.158 0-1.05.527-1.517.703-1.75.175-.233.41-.233.585-.233h.41c.117 0 .292-.059.468.35.176.408.585 1.458.644 1.516a.37.37 0 0 1 0 .35 1.22 1.22 0 0 1-.234.35c-.117.117-.234.292-.293.35-.117.117-.234.234-.117.409.117.233.527.875 1.17 1.458.82.7 1.464.933 1.698 1.05.234.117.351.058.469-.058.117-.117.526-.584.643-.817.117-.233.293-.175.469-.117.175.059 1.229.584 1.405.7.234.117.35.175.41.234.058.175.058.583-.118 1.05z"/></symbol></svg>