<svg width="28" height="19" viewBox="0 0 28 19" fill="none" xmlns="http://www.w3.org/2000/svg"><path fill-rule="evenodd" clip-rule="evenodd" d="M24.439.779a3.358 3.358 0 0 1 2.37 2.37c.56 2.091.56 6.454.56 6.454s0 4.363-.56 6.454a3.358 3.358 0 0 1-2.37 2.37c-2.091.56-10.476.56-10.476.56s-8.384 0-10.475-.56a3.358 3.358 0 0 1-2.37-2.37C.556 13.966.556 9.603.556 9.603s0-4.363.56-6.454A3.358 3.358 0 0 1 3.487.78C5.58.22 13.964.22 13.964.22s8.385 0 10.476.56zm-6.212 8.823L11.22 5.64v7.922l7.007-3.961z" fill="#FEF500"/></svg>